HIERARCHY
ROOT root
{
	OFFSET	0	13.1	24.9
	CHANNELS 6  Xposition Yposition Zposition Xrotation Yrotation Zrotation
	JOINT spine_1
	{
		OFFSET	0	9.99999	0
		CHANNELS 3  Xrotation Yrotation Zrotation
		JOINT spine_2
		{
			OFFSET	0	112	-10
			CHANNELS 3  Xrotation Yrotation Zrotation
			JOINT spine_3
			{
				OFFSET	0	206.5	19.3
				CHANNELS 3  Xrotation Yrotation Zrotation
				JOINT spine_4
				{
					OFFSET	0	110.4	14.6
					CHANNELS 3  Xrotation Yrotation Zrotation
					JOINT neck_1
					{
						OFFSET	0	71.8	-50.3
						CHANNELS 3  Xrotation Yrotation Zrotation
						JOINT neck_2
						{
							OFFSET	0	86.2	-25.8
							CHANNELS 3  Xrotation Yrotation Zrotation
							JOINT head_ee
							{
								OFFSET	0	179.8	-8.7
								CHANNELS 3  Xrotation Yrotation Zrotation
								End Site
								{
									OFFSET	1	0	0
								}
							}
						}
					}
					JOINT left_clavicle
					{
						OFFSET	-43.2	22.4	-70.8
						CHANNELS 3  Xrotation Yrotation Zrotation
						JOINT left_shoulder
						{
							OFFSET	-93.9	-5.79999	48.7
							CHANNELS 3  Xrotation Yrotation Zrotation
							JOINT left_elbow
							{
								OFFSET	-291.4	-30.8	15.2
								CHANNELS 3  Xrotation Yrotation Zrotation
								JOINT left_lowarm_twist
								{
									OFFSET	-110.7	-3.89999	13.6
									CHANNELS 3  Xrotation Yrotation Zrotation
									JOINT left_hand
									{
										OFFSET	-110.7	-3.89999	13.6
										CHANNELS 3  Xrotation Yrotation Zrotation
										JOINT left_ee
										{
											OFFSET	-80.8	-5.10001	12.1
											CHANNELS 3  Xrotation Yrotation Zrotation
											End Site
											{
												OFFSET	1	0	0
											}
										}
									}
								}
							}
						}
					}
					JOINT right_clavicle
					{
						OFFSET	43.2	22.4	-70.8
						CHANNELS 3  Xrotation Yrotation Zrotation
						JOINT right_shoulder
						{
							OFFSET	93.9	-5.79999	48.7
							CHANNELS 3  Xrotation Yrotation Zrotation
							JOINT right_elbow
							{
								OFFSET	291.4	-30.8	15.2
								CHANNELS 3  Xrotation Yrotation Zrotation
								JOINT right_lowarm_twist
								{
									OFFSET	110.7	-3.89999	13.6
									CHANNELS 3  Xrotation Yrotation Zrotation
									JOINT right_hand
									{
										OFFSET	110.7	-3.89999	13.6
										CHANNELS 3  Xrotation Yrotation Zrotation
										JOINT right_ee
										{
											OFFSET	80.8	-5.10001	12.1
											CHANNELS 3  Xrotation Yrotation Zrotation
											End Site
											{
												OFFSET	1	0	0
											}
										}
									}
								}
							}
						}
					}
				}
			}
		}
	}
	JOINT left_hip
	{
		OFFSET	-82.8	-127.5	0.300001
		CHANNELS 3  Xrotation Yrotation Zrotation
		JOINT left_knee
		{
			OFFSET	-28.2	-396.7	2.2
			CHANNELS 3  Xrotation Yrotation Zrotation
			JOINT left_ankle
			{
				OFFSET	-11.7	-411.3	35.4
				CHANNELS 3  Xrotation Yrotation Zrotation
				JOINT left_toes
				{
					OFFSET	0	-60	-88.6
					CHANNELS 3  Xrotation Yrotation Zrotation
					JOINT left_foot_ee
					{
						OFFSET	-22.5	-16.5	-42.2
						CHANNELS 3  Xrotation Yrotation Zrotation
						End Site
						{
							OFFSET	1	0	0
						}
					}
				}
			}
		}
	}
	JOINT right_hip
	{
		OFFSET	82.8	-127.5	0.300001
		CHANNELS 3  Xrotation Yrotation Zrotation
		JOINT right_knee
		{
			OFFSET	28.2	-396.7	2.2
			CHANNELS 3  Xrotation Yrotation Zrotation
			JOINT right_ankle
			{
				OFFSET	11.7	-411.3	35.4
				CHANNELS 3  Xrotation Yrotation Zrotation
				JOINT right_toes
				{
					OFFSET	0	-60	-88.6
					CHANNELS 3  Xrotation Yrotation Zrotation
					JOINT right_foot_ee
					{
						OFFSET	22.5	-16.5	-42.2
						CHANNELS 3  Xrotation Yrotation Zrotation
						End Site
						{
							OFFSET	1	0	0
						}
					}
				}
			}
		}
	}
}
MOTION
Frames: 9
Frame Time: 0.02
1822.24 726.522 -489.416 177.212 -77.7095 -175.304 -0.969906 -0.515181 -3.41944 -0.963451 -0.296681 -3.44525 -0.940512 0.490713 -3.42304 -0.956856 -0.0557152 -3.45754 -19.9931 3.62109 11.4157 -19.6279 1.17685 12.0964 -0.0 0.0 -0.0 8.24978 10.3126 15.6109 -14.9481 -32.9288 59.0033 1.3279 -33.3355 0.397592 -79.9328 -7.81332 5.28064 -2.56004 21.0367 -6.6244 -0.0 0.0 -0.0 5.29354 2.25428 -10.1625 -2.0956 -4.83155 -62.1229 2.58411 51.9946 -1.26037 84.5827 4.37662 8.84671 2.07061 -26.9182 -22.6727 0.0 0.0 0.0 37.0132 60.2213 -42.3744 -7.25255 0.22996 1.08856 18.8713 -30.3772 -3.2655 -15.7561 0.0 0.0 -0.0 0.0 -0.0 6.47952 16.7446 -12.903 -6.3267 -0.208309 -0.948126 31.4881 -1.62637 4.05665 -30.0067 0.0 0.0 0.0 0.0 0.0 
1824.52 726.918 -485.715 176.577 -78.1178 -175.844 -1.00983 -0.529145 -3.42495 -1.00336 -0.310268 -3.45164 -0.979455 0.481237 -3.432 -0.995883 -0.0664854 -3.4649 -18.64 3.6426 10.8283 -18.3113 1.24945 11.5056 -0.0 0.0 -0.0 8.2402 10.5932 15.5733 -15.3101 -33.4478 58.8905 1.29995 -32.7783 0.382343 -79.3948 -7.74501 5.28748 -2.41918 19.2169 -6.72726 -0.0 0.0 -0.0 5.32815 1.94846 -10.2419 -2.05008 -5.16708 -62.5631 2.59103 52.0688 -1.26582 84.4768 4.36398 8.84172 2.14769 -27.2671 -23.2229 0.0 0.0 0.0 37.5141 60.4249 -43.1935 -7.11043 0.226784 1.06698 18.8484 -30.5922 -3.27139 -16.1943 0.0 0.0 -0.0 0.0 -0.0 6.91156 17.4715 -13.3915 -6.5563 -0.213889 -0.982919 31.2729 -1.5163 4.03487 -30.5359 0.0 0.0 0.0 0.0 0.0 
1827.16 727.436 -482.694 177.199 -77.6142 -175.201 -1.08803 -0.463941 -3.40636 -1.0816 -0.246375 -3.42894 -1.0617 0.543292 -3.39462 -1.07778 0.000685687 -3.43777 -17.5323 3.4863 10.4367 -17.2263 0.943977 11.0479 -0.0 0.0 -0.0 8.21117 9.9178 15.5687 -16.2153 -34.0746 58.6664 1.25243 -31.8147 0.35695 -79.4279 -7.74921 5.28708 -2.35044 16.9217 -7.48236 -0.0 0.0 -0.0 5.55474 2.39654 -10.6785 -1.59901 -5.72789 -62.2062 2.55654 51.6962 -1.23868 84.2191 4.33327 8.82949 2.1962 -27.6474 -23.6036 0.0 0.0 0.0 38.8592 59.8055 -44.4372 -8.01485 0.24608 1.20442 19.3171 -30.2811 -3.32988 -16.6379 0.0 0.0 -0.0 0.0 -0.0 6.83142 16.2048 -13.697 -6.32704 -0.208317 -0.948178 31.9143 -1.39145 4.10199 -30.9732 0.0 0.0 0.0 0.0 0.0 
1828.72 727.204 -479.976 177.085 -77.9499 -175.359 -1.16103 -0.482569 -3.48585 -1.15431 -0.259918 -3.50945 -1.13284 0.552825 -3.47541 -1.14969 -0.00263582 -3.51905 -16.8818 3.54065 10.8405 -16.5514 0.694212 11.4297 -0.0 0.0 -0.0 8.21678 10.8158 15.5148 -16.6122 -34.2872 59.0358 1.23727 -31.5032 0.348996 -79.478 -7.75557 5.28647 -2.23102 15.2327 -7.5945 -0.0 0.0 -0.0 5.62931 2.55683 -10.8225 -1.63304 -6.4962 -62.4563 2.62105 52.3882 -1.28955 83.5396 4.25252 8.79657 2.24398 -27.6633 -23.899 0.0 0.0 0.0 39.88 59.6326 -44.9878 -8.55922 0.256648 1.28729 19.4602 -29.6456 -3.32391 -17.3472 0.0 0.0 -0.0 0.0 -0.0 6.32599 14.9943 -13.6023 -5.66246 -0.191378 -0.847596 33.7079 -1.84497 4.281 -31.2314 0.0 0.0 0.0 0.0 0.0 
1832.23 725.848 -476.882 175.861 -77.8906 -176.687 -1.22096 -0.443765 -3.4679 -1.2143 -0.222331 -3.48907 -1.19524 0.588544 -3.44631 -1.21181 0.0372242 -3.49594 -16.2386 3.24827 11.0165 -15.8974 -0.0981936 11.4834 -0.0 0.0 -0.0 8.06375 11.3172 15.2043 -16.8056 -34.3138 59.0335 1.19525 -30.6282 0.327309 -79.5013 -7.75853 5.28618 -2.12921 14.2012 -7.47006 -0.0 0.0 -0.0 5.88512 2.82981 -11.327 -1.36057 -7.2072 -62.4223 2.60812 52.2512 -1.27932 82.894 4.17618 8.76441 2.26767 -27.7239 -24.057 0.0 0.0 0.0 40.4702 59.4863 -45.3289 -8.89868 0.262838 1.33901 20.1411 -29.223 -3.40813 -17.8314 0.0 0.0 -0.0 0.0 -0.0 5.90868 14.9044 -13.624 -5.96916 -0.19934 -0.89399 34.2994 -2.04135 4.33846 -31.7347 0.0 0.0 0.0 0.0 0.0 
1831.35 723.181 -475.287 177.586 -78.2261 -175.1 -1.27906 -0.449211 -3.455 -1.27245 -0.228585 -3.47655 -1.25298 0.583019 -3.43498 -1.26944 0.0335545 -3.48389 -16.0603 3.34676 10.7265 -15.7366 0.222878 11.2418 -0.0 0.0 -0.0 7.93776 10.5846 15.0295 -17.4977 -34.8536 59.1216 1.1729 -30.1563 0.316003 -80.205 -7.84784 5.27694 -2.11463 13.1069 -7.9185 -0.0 0.0 -0.0 6.07115 3.33889 -11.6875 -0.992575 -7.95553 -62.2982 2.64354 52.6244 -1.30739 82.5209 4.13222 8.74544 2.37884 -27.5922 -24.7126 0.0 0.0 0.0 41.755 59.1691 -45.6397 -9.02302 0.265029 1.35796 20.0377 -29.1898 -3.39122 -18.2018 0.0 0.0 -0.0 0.0 -0.0 5.95353 13.603 -13.5412 -5.22648 -0.179631 -0.781718 37.8259 -1.19517 4.67608 -31.2018 0.0 0.0 0.0 0.0 0.0 
1833.85 723.053 -475.319 178.616 -78.474 -174.085 -1.23747 -0.444947 -3.39404 -1.23109 -0.228203 -3.41544 -1.21215 0.5668 -3.37585 -1.22805 0.0268599 -3.42294 -15.0566 3.28928 11.5742 -14.6805 -0.594182 12.0163 -0.0 0.0 -0.0 8.54175 12.3651 15.9687 -18.3528 -34.396 58.1477 1.12009 -29.0233 0.289928 -80.6777 -7.90775 5.2701 -2.14757 13.196 -8.08341 -0.0 0.0 -0.0 6.17618 2.72757 -11.9145 -0.777631 -8.9961 -62.6662 2.57923 51.9421 -1.25653 81.7689 4.044 8.70632 2.55038 -27.7084 -25.8005 0.0 0.0 0.0 42.8587 58.891 -46.1007 -9.74871 0.276995 1.46868 21.8545 -28.6897 -3.63622 -17.8285 0.0 0.0 -0.0 0.0 -0.0 6.00685 14.8086 -13.5911 -6.13133 -0.20345 -0.918537 38.7998 0.101528 4.77198 -30.6746 0.0 0.0 0.0 0.0 0.0 
1840.27 723.3 -471.108 178.997 -79.7045 -174.153 -1.22065 -0.447692 -3.39605 -1.21427 -0.230815 -3.41762 -1.19518 0.563757 -3.37874 -1.21111 0.0233993 -3.42531 -14.6359 3.48021 12.0419 -14.2287 -0.602634 12.52 -0.0 0.0 -0.0 8.61949 12.3079 16.1116 -20.2503 -34.4306 57.5347 1.07722 -28.0847 0.269436 -81.1851 -7.97199 5.26221 -2.07955 12.6643 -7.91339 -0.0 0.0 -0.0 6.25439 2.47912 -12.0772 -0.76313 -10.6546 -63.1671 2.54412 51.5605 -1.22895 81.4949 4.01198 8.69178 2.72219 -28.0157 -26.9356 0.0 0.0 0.0 43.2748 58.8247 -46.4487 -10.1663 0.283244 1.53245 22.3445 -29.0967 -3.72565 -17.9904 0.0 0.0 -0.0 0.0 -0.0 5.32342 13.691 -13.0334 -6.21106 -0.205445 -0.93061 39.9302 -0.0760224 4.86939 -30.0943 0.0 0.0 0.0 0.0 0.0 
1845.08 725.516 -470.995 179.608 -80.5684 -173.628 -1.24002 -0.453156 -3.4348 -1.23349 -0.233806 -3.45664 -1.21391 0.570978 -3.41721 -1.2302 0.024465 -3.46444 -14.4386 3.39757 12.1525 -14.0242 -0.872103 12.6002 -0.0 0.0 -0.0 8.54582 11.8437 16.0217 -20.4026 -34.5457 58.3825 1.038 -27.2114 0.251235 -81.7001 -8.0371 5.25362 -2.06495 12.5464 -7.8783 -0.0 0.0 -0.0 6.35534 1.71262 -12.2941 -0.570961 -11.9884 -63.1195 2.59338 52.094 -1.26767 81.2723 3.98603 8.67986 2.85708 -28.0916 -27.8019 0.0 0.0 0.0 43.6751 58.7531 -46.7013 -10.0487 0.281531 1.51448 23.3988 -29.1347 -3.8779 -17.7393 0.0 0.0 -0.0 0.0 -0.0 5.23364 13.6696 -13.044 -6.52865 -0.213225 -0.978728 40.4949 0.515239 4.92216 -29.3007 0.0 0.0 0.0 0.0 0.0 
